<svg id="Ebene_1" data-name="Ebene 1" xmlns="http://www.w3.org/2000/svg" viewBox="0 0 1031.34 254.25">
    <defs>
        <style>.cls-1{fill:#db2325;}.cls-2{isolation:isolate;}.cls-3{fill:#222;}</style>
    </defs>
    <title>pdfforge logo_neu</title>
    <path id="path2830" class="cls-1"
          d="M162.49,248.88c-.61-.49-.73-.82-.68-1.93.09-2.08,1-4.15,3.43-8,3.52-5.51,4.73-8.2,6-13.38a64,64,0,0,0,1.87-14.71c.22-6.48-.17-9.13-2-13.65-2-5-4.85-9.17-10.11-15-3.21-3.55-7-7.1-16.53-15.33-7.86-6.81-12.62-11.45-15.08-14.67C121.65,142,116.05,129,108,102.31c-1.69-5.58-3.17-10.25-3.29-10.38-.46-.5-12,15.34-15.72,21.66a73.62,73.62,0,0,0-8.66,21.09A55.08,55.08,0,0,0,79,150.25c.19,6.78.6,9.71,3.34,23.59C84.56,185.12,85,187.79,85,191.6c0,4.53-1,6.66-3.34,7.05s-5.82-1.41-9.94-5.43a70,70,0,0,1-14.45-21.48c-1.59-3.59-4.1-10.7-4.1-11.61,0-.76-1.08-.5-1.48.36A69.54,69.54,0,0,0,47,176c-.75,4.24-.75,15.21,0,19.85,1.31,8.15,3.8,15.74,9.31,28.35,3.15,7.21,4.67,11.5,4.67,13.18a5.92,5.92,0,0,1-.42,1.85c-.85,2-2.42,2.12-5.76.47-6.92-3.43-15.54-11.94-22.36-22.08a116.37,116.37,0,0,1-9.3-17.94c-8-21.38-8.21-43.58-.65-67.52,7.85-24.83,28.51-56.5,51.7-79.24C93.3,34.16,113.21,22.39,133.59,17.8c5.13-1.16,5.24-1.17,5.24-.53,0,.92-1.43,6.05-3.45,12.38-4,12.45-4.75,17.5-3.62,23.31,1.17,6,4,10.6,10.19,16.41,18.64,17.57,25.81,26,41.5,48.83,8.69,12.64,11.25,15.48,14.23,15.81,1.14.13,1.41,0,2.07-.66,1-1,1.88-3.42,2.62-6.91a80.67,80.67,0,0,0,.59-17.5,14.66,14.66,0,0,1-.2-3c.4-.39,5.86,1.54,11.47,10.67,15.22,21.47,20.6,45.13,16,70.16-2.9,10.8-10,21.69-21.92,33.65C197.22,231.52,185,240.72,174,246.09c-6,2.94-10.09,3.94-11.53,2.79Z"
          transform="translate(-16.94 -16.85)"/>
    <g id="pdfforge" class="cls-2 d-none">
        <g class="cls-2">
            <path class="cls-1"
                  d="M259.2,271.1V111.7h16.17v17.36c.91-1.19,1.87-2.35,2.89-3.5q14.4-16.17,35.46-16.16t35.46,16.16a55.89,55.89,0,0,1,0,73.93q-14.4,16.17-35.46,16.17t-35.46-16.17c-1-1.15-2-2.31-2.89-3.5V271.1Zm77.5-134.45a34.92,34.92,0,0,0-51.05,0,37.7,37.7,0,0,0,0,51.75,34.92,34.92,0,0,0,51.05,0,37.7,37.7,0,0,0,0-51.75Z"
                  transform="translate(-16.94 -16.85)"/>
            <path class="cls-1"
                  d="M462.71,213.35V196c-.9,1.19-1.87,2.35-2.89,3.5q-14.4,16.17-35.45,16.17t-35.46-16.17a55.86,55.86,0,0,1,0-73.93q14.4-16.17,35.46-16.16t35.45,16.16c1,1.15,2,2.31,2.89,3.5v-89h16.17V213.35Zm-10.28-76.7a34.92,34.92,0,0,0-51.05,0,37.7,37.7,0,0,0,0,51.75,34.92,34.92,0,0,0,51.05,0,37.7,37.7,0,0,0,0-51.75Z"
                  transform="translate(-16.94 -16.85)"/>
            <path class="cls-1"
                  d="M545.18,55.11q-8.08,0-10.63,3.7a15.51,15.51,0,0,0-2.54,9V111.7h27v15H532v86.63H515.84V126.72H495.28v-15h20.56V72.43q0-15.47,7.28-23.9t24.37-8.44H559v15Z"
                  transform="translate(-16.94 -16.85)"/>
        </g>
        <g class="cls-2">
            <path class="cls-3"
                  d="M614.94,55.11q-8.09,0-10.63,3.7a15.51,15.51,0,0,0-2.54,9V111.7h27v15h-27v86.63H585.6V126.72H565v-15H585.6V72.43q0-15.47,7.28-23.9t24.37-8.44H628.8v15Z"
                  transform="translate(-16.94 -16.85)"/>
            <path class="cls-3"
                  d="M727.78,199.49a53.28,53.28,0,0,1-75.08,0,50.54,50.54,0,0,1-15.59-37.43,53.13,53.13,0,0,1,106.26,0A50.54,50.54,0,0,1,727.78,199.49ZM716.34,136a37,37,0,0,0-63.06,26.1A37,37,0,1,0,716.34,136Z"
                  transform="translate(-16.94 -16.85)"/>
            <path class="cls-3"
                  d="M802.36,127.64a16.85,16.85,0,0,0-10.83,3.59A30.66,30.66,0,0,0,784,140a44.21,44.21,0,0,0-5.77,22.53v50.82H762.08V111.7h16.17v21l.69-4.16q8.12-18.94,25.18-18.94a25.61,25.61,0,0,1,10.16,2.07v21Q808.7,127.65,802.36,127.64Z"
                  transform="translate(-16.94 -16.85)"/>
            <path class="cls-3"
                  d="M844.89,244.19a36.5,36.5,0,0,0,62.25-25.76V196.29a36.41,36.41,0,0,1-2.65,3.2Q890,215.66,869,215.66q-21.25,0-35.69-16.17a55.86,55.86,0,0,1,0-73.93Q847.77,109.39,869,109.4q20.33,0,35.46,16.16a36.41,36.41,0,0,1,2.65,3.2V111.7h16.17V218.43a52.72,52.72,0,0,1-104.66,8.78h16.5A35.19,35.19,0,0,0,844.89,244.19Zm52-107.54a33.48,33.48,0,0,0-25.52-11.09q-14.83,0-25.41,11.09a37.39,37.39,0,0,0,0,51.75q10.58,11.08,25.41,11.09a33.48,33.48,0,0,0,25.52-11.09,37.7,37.7,0,0,0,0-51.75Z"
                  transform="translate(-16.94 -16.85)"/>
            <path class="cls-3"
                  d="M1048.28,168.76h-89.4a34.69,34.69,0,0,0,12.71,21.49,36.76,36.76,0,0,0,40.31,4.5,37.35,37.35,0,0,0,13.28-11.2h18.48a51.73,51.73,0,0,1-19.52,23Q1011.09,215,997.58,215t-23.1-4.15a55.27,55.27,0,0,1-16.87-11.32A50.54,50.54,0,0,1,942,162.06a53.25,53.25,0,0,1,53.13-53.13q21.32,0,37.08,15,16.05,15.28,16,36.27Zm-30.14-35.34a35,35,0,0,0-23-8.32Q975.4,125.1,964,143a35.8,35.8,0,0,0-4.85,11.89h72.07A37.33,37.33,0,0,0,1018.14,133.42Z"
                  transform="translate(-16.94 -16.85)"/>
        </g>
    </g>
</svg>
