<svg xmlns="http://www.w3.org/2000/svg" xmlns:xlink="http://www.w3.org/1999/xlink" width="1299.262" height="187.737" viewBox="0 0 343.763 49.672" xmlns:v="https://vecta.io/nano"><path d="M67.827 39.199q-2.941 0-5.318-1.007-2.337-1.007-3.707-2.901-1.37-1.894-1.41-4.472h6.043q.121 1.732 1.209 2.74 1.128 1.007 3.062 1.007 1.974 0 3.102-.927 1.128-.967 1.128-2.498 0-1.249-.765-2.055-.765-.806-1.934-1.249-1.128-.483-3.143-1.047-2.74-.806-4.472-1.571-1.692-.806-2.941-2.377-1.209-1.612-1.209-4.271 0-2.498 1.249-4.351 1.249-1.853 3.505-2.82 2.256-1.007 5.157-1.007 4.351 0 7.051 2.135 2.74 2.095 3.022 5.882h-6.204q-.081-1.45-1.249-2.377-1.128-.967-3.022-.967-1.652 0-2.659.846-.967.846-.967 2.458 0 1.128.725 1.894.765.725 1.853 1.209 1.128.443 3.143 1.048 2.74.806 4.472 1.612 1.732.806 2.981 2.417 1.249 1.612 1.249 4.23 0 2.256-1.168 4.19-1.168 1.934-3.425 3.102-2.256 1.128-5.358 1.128zm40.088-28.403L97.601 38.917h-6.849L80.438 10.796h6.043l7.735 22.36 7.695-22.36zm22.964 8.46q-.967-1.773-2.659-2.699-1.692-.927-3.948-.927-2.498 0-4.432 1.128-1.934 1.128-3.022 3.223-1.088 2.095-1.088 4.835 0 2.82 1.088 4.915 1.128 2.095 3.102 3.223 1.974 1.128 4.593 1.128 3.223 0 5.278-1.692 2.055-1.732 2.699-4.794h-9.669v-4.311h15.229V28.2q-.564 2.941-2.417 5.439-1.853 2.498-4.794 4.029-2.901 1.491-6.527 1.491-4.069 0-7.373-1.813-3.263-1.853-5.157-5.117-1.853-3.263-1.853-7.413 0-4.15 1.853-7.413 1.894-3.304 5.157-5.117 3.304-1.853 7.333-1.853 4.754 0 8.259 2.337 3.505 2.296 4.835 6.486zm9.992 5.56q0-4.15 1.853-7.413 1.894-3.304 5.117-5.117 3.263-1.853 7.292-1.853 4.714 0 8.259 2.417 3.545 2.417 4.955 6.688h-6.486q-.967-2.014-2.74-3.022-1.732-1.007-4.029-1.007-2.458 0-4.391 1.168-1.894 1.128-2.981 3.223-1.048 2.095-1.048 4.915 0 2.78 1.048 4.915 1.088 2.095 2.981 3.263 1.934 1.128 4.391 1.128 2.296 0 4.029-1.007 1.773-1.047 2.74-3.062h6.486q-1.41 4.311-4.955 6.728-3.505 2.377-8.259 2.377-4.029 0-7.292-1.813-3.223-1.853-5.117-5.117-1.853-3.263-1.853-7.413zm42.222 14.464q-3.223 0-5.802-1.41-2.578-1.45-4.069-4.069-1.45-2.619-1.45-6.043 0-3.425 1.491-6.043 1.531-2.619 4.15-4.029 2.619-1.45 5.842-1.45 3.223 0 5.842 1.45 2.619 1.41 4.109 4.029 1.531 2.619 1.531 6.043 0 3.425-1.571 6.043-1.531 2.619-4.19 4.069-2.619 1.41-5.882 1.41zm0-4.915q1.531 0 2.86-.725 1.37-.765 2.176-2.256.806-1.491.806-3.626 0-3.183-1.692-4.875-1.652-1.732-4.069-1.732-2.417 0-4.069 1.732-1.612 1.692-1.612 4.875 0 3.183 1.571 4.915 1.612 1.692 4.029 1.692zm28.162-18.09q3.989 0 6.446 2.538 2.458 2.498 2.458 7.01v13.094h-5.64V26.589q0-2.659-1.33-4.069-1.33-1.45-3.626-1.45-2.337 0-3.707 1.45-1.33 1.41-1.33 4.069v12.328h-5.64v-22.32h5.64v2.78q1.128-1.45 2.86-2.256 1.773-.846 3.868-.846zm23.568 17.445l5.64-17.123h6.003l-8.259 22.32h-6.849l-8.219-22.32h6.043zm35.575-6.446q0 1.209-.161 2.176H253.92q.201 2.417 1.692 3.787 1.491 1.37 3.666 1.37 3.143 0 4.472-2.699h6.084q-.967 3.223-3.707 5.318-2.74 2.055-6.728 2.055-3.223 0-5.802-1.41-2.538-1.45-3.989-4.069-1.41-2.619-1.41-6.043 0-3.465 1.41-6.084 1.41-2.619 3.948-4.029 2.538-1.41 5.842-1.41 3.183 0 5.681 1.37 2.538 1.37 3.908 3.908 1.41 2.498 1.41 5.761zm-5.842-1.612q-.04-2.176-1.571-3.465-1.531-1.33-3.747-1.33-2.095 0-3.545 1.289-1.41 1.249-1.732 3.505z"/><use xlink:href="#B"/><path d="M297.351 21.231v10.797q0 1.128.524 1.652.564.483 1.853.483h2.619v4.754h-3.545q-7.131 0-7.131-6.93V21.231h-2.659v-4.633h2.659v-5.52h5.681v5.52h4.996v4.633zm29.814 6.043q0 1.209-.161 2.176h-16.317q.201 2.417 1.692 3.787 1.491 1.37 3.666 1.37 3.143 0 4.472-2.699h6.084q-.967 3.223-3.707 5.318-2.74 2.055-6.728 2.055-3.223 0-5.802-1.41-2.538-1.45-3.989-4.069-1.41-2.619-1.41-6.043 0-3.465 1.41-6.084 1.41-2.619 3.948-4.029 2.538-1.41 5.842-1.41 3.183 0 5.681 1.37 2.538 1.37 3.908 3.908 1.41 2.498 1.41 5.761zm-5.842-1.612q-.04-2.176-1.571-3.465-1.531-1.33-3.747-1.33-2.095 0-3.545 1.289-1.41 1.249-1.732 3.505z"/><use xlink:href="#B" x="56.767"/><g transform="matrix(.632385 0 0 .632385 -63.959039 -43.174897)"><circle cx="63.14" cy="141.956" r="19.637" transform="matrix(-.258819 .965926 .965926 .258819 0 0)" fill="#51c01f"/><circle cx="-162.03" cy="-45.913" transform="matrix(-.5 -.866025 -.866025 .5 0 0)" r="19.637" fill="#ffc107"/><circle cx="-137.783" cy="127.184" r="19.637" transform="scale(-1 1)" fill="#ffa107"/><circle cx="73.304" cy="179.891" r="19.637" transform="matrix(-.258819 .965926 .965926 .258819 0 0)" fill="#fe3733"/><g fill="#da5dd2"><circle cx="-227.487" cy="-18.745" transform="matrix(-.5 -.866025 -.866025 .5 24.812 -89.908)" r="19.637" fill-opacity="0"/><path d="M154.789 78.093c-3.447 0-6.833.907-9.819 2.631s-5.465 4.203-7.189 7.189c2.604 4.51 3.31 9.869 1.963 14.899-.448 1.653-1.109 3.241-1.969 4.722 5.43 9.406 17.439 12.624 26.831 7.202a19.64 19.64 0 0 0 7.188-26.824c-3.508-6.076-9.99-9.818-17.006-9.819z"/></g><g fill="#17a0fa"><circle cx="39.493" cy="82.376" r="19.637" transform="matrix(-.258819 .965926 .965926 .258819 68.436 28.443)" fill-opacity="0"/><path d="M137.049 68.288c-6.749.258-12.892 3.966-16.264 9.818 1.713-.004 3.419.217 5.075.656a19.64 19.64 0 0 1 13.885 24.05c-.448 1.653-1.11 3.241-1.969 4.722a19.64 19.64 0 0 0 5.09-38.59c-1.895-.508-3.856-.729-5.817-.655z"/></g></g><defs ><path id="B" d="M280.148 20.062q1.088-1.773 2.82-2.78 1.773-1.007 4.029-1.007v5.922h-1.491q-2.659 0-4.029 1.249-1.33 1.249-1.33 4.351v11.12h-5.64v-22.32h5.64z"/></defs></svg>